Coordinates
version=1
nRows=11
nColumns=36
inDegrees=yes

Units are S.I. units (second, meters, Newtons, ...)
If the header above contains a line with 'inDegrees', this indicates whether rotational values are in degrees (yes) or radians (no).

endheader
time	pelvis_tilt	pelvis_list	pelvis_rotation	pelvis_tx	pelvis_ty	pelvis_tz	hip_flexion_r	hip_adduction_r	hip_rotation_r	knee_angle_r	knee_angle_r_beta	ankle_angle_r	subtalar_angle_r	mtp_angle_r	hip_flexion_l	hip_adduction_l	hip_rotation_l	knee_angle_l	knee_angle_l_beta	ankle_angle_l	subtalar_angle_l	mtp_angle_l	lumbar_extension	lumbar_bending	lumbar_rotation	arm_flex_r	arm_add_r	arm_rot_r	elbow_flex_r	pro_sup_r	arm_flex_l	arm_add_l	arm_rot_l	elbow_flex_l	pro_sup_l
      3.15000000	     -2.57878620	     -0.98988632	     16.08633905	      0.77092242	      0.90082913	     -0.11150487	     -4.96843930	      5.45420920	      4.62153198	      1.42647737	      0.02489673	     13.16864145	     -8.57334828	     -7.49999987	     18.23939979	     -6.00278623	     -6.60173284	      9.96502435	      0.17392248	      0.58595414	     -4.91099328	     -7.49999987	     -6.89222354	      2.39160570	      7.53168057	     35.75547731	     -1.24271565	     60.93839419	    125.46425754	    103.13258207	     27.83280459	      1.37173382	     61.69704632	    122.08392976	    109.44655101
      3.16666670	     -2.64047097	     -0.97494837	     16.07266538	      0.77336221	      0.90145400	     -0.11328612	     -5.24385860	      5.32577947	      4.50786395	      1.25527779	      0.02190873	     13.27888775	     -8.35654695	     -7.49999987	     18.05807408	     -5.86965946	     -6.38641873	     10.03520615	      0.17514739	      0.74745037	     -4.81008857	     -7.49999987	     -6.65809752	      2.20185509	      7.72236662	     35.22669265	     -1.22077196	     60.85437648	    125.72609784	    103.06630379	     27.39241645	      1.54472455	     62.29558117	    122.39476373	    109.73784303
      3.18333330	     -2.81517762	     -1.01539461	     15.96951388	      0.77433553	      0.90218976	     -0.11427828	     -5.34066584	      5.23131552	      4.81926240	      1.10561431	      0.01929661	     13.01684409	     -8.89946013	     -7.49999987	     18.08102321	     -5.83574954	     -6.28430542	     10.20676054	      0.17814158	      0.86958233	     -4.71574695	     -7.49999987	     -6.39146514	      2.07904295	      7.91658183	     35.02747605	     -1.21112622	     60.88599731	    125.81708124	    103.03648291	     27.00069370	      1.58447487	     62.72507338	    122.69698047	    109.43031611
      3.20000000	     -2.81184678	     -1.01559406	     15.91405221	      0.77455394	      0.90288871	     -0.11552349	     -5.56844590	      5.14214863	      4.60399048	      1.03012646	      0.01797910	     13.17781453	     -8.43364876	     -7.49999987	     17.92093110	     -5.79852600	     -6.14116850	     10.26951523	      0.17923685	      0.86046907	     -4.66264319	     -7.49999987	     -6.44061762	      1.92572587	      8.24186729	     35.16927349	     -1.38232877	     60.74889322	    126.14444250	    103.04001312	     27.14437758	      1.64569952	     63.07769952	    122.55725160	    109.30331840
      3.21666670	     -2.94383852	     -1.07628272	     15.81718096	      0.77570536	      0.90322420	     -0.11688567	     -5.60191357	      5.08154678	      4.79590781	      0.96933500	      0.01691809	     12.94721831	     -8.84906670	     -7.49999987	     17.96623540	     -5.80516542	     -6.03982517	     10.36740718	      0.18094539	      0.82530669	     -4.72293636	     -7.49999987	     -6.37878007	      1.82821165	      8.40091640	     35.54958823	     -1.39414696	     60.52633323	    126.19424346	    103.04614332	     27.36810387	      1.47840368	     62.74364859	    122.44666538	    109.34491882
      3.23333330	     -2.93491535	     -1.07981548	     15.76429882	      0.77886613	      0.90391252	     -0.11856739	     -5.80945063	      5.00143097	      4.71209527	      0.91903495	      0.01604019	     12.97792639	     -8.71038527	     -7.49999987	     17.84270329	     -5.78512450	     -5.93239375	     10.47173181	      0.18276620	      0.74116528	     -4.78873889	     -7.49999987	     -6.46314971	      1.65646637	      8.60226292	     35.93678477	     -1.46050092	     60.03178988	    126.06994612	    102.87804028	     27.88111240	      1.27497033	     62.29742032	    122.18266671	    109.30964352
      3.25000000	     -3.01429164	     -1.09381811	     15.69611112	      0.78408591	      0.90420264	     -0.12163389	     -5.95683199	      4.91275424	      4.76684611	      0.88254941	      0.01540339	     12.98666378	     -8.70324075	     -7.49999987	     17.78282468	     -5.76538782	     -5.88230566	     10.65558771	      0.18597509	      0.65850341	     -4.77680047	     -7.49999987	     -6.37098626	      1.42578216	      8.68561848	     36.18035675	     -1.46236755	     59.86318812	    125.96499057	    102.88162665	     28.19647255	      1.11329802	     62.04889807	    122.13048690	    109.29545640
      3.26666670	     -3.05135805	     -1.12112386	     15.54837079	      0.78989799	      0.90377422	     -0.12698142	     -6.14113129	      4.81019000	      4.75932690	      0.91373786	      0.01594773	     12.99200640	     -8.72020733	     -7.49999987	     17.58697617	     -5.73245845	     -5.85472127	     10.78513157	      0.18823606	      0.61876177	     -4.76665656	     -7.49999987	     -6.17985414	      1.40820941	      8.64272523	     36.18418041	     -1.48665234	     59.83477522	    125.94536739	    102.88322712	     28.23696252	      1.14735499	     62.01524335	    122.13684196	    109.29355352
      3.28333330	     -2.97546943	     -0.94692794	     15.47692988	      0.79518459	      0.90306748	     -0.13283827	     -6.58209557	      4.53153679	      4.82226802	      0.87661162	      0.01529976	     13.05173417	     -8.77865650	     -7.49999987	     17.27915208	     -5.50581414	     -5.88786863	     11.11999125	      0.19408046	      0.62837941	     -4.83257910	     -7.49999987	     -5.95326124	      1.12184606	      8.46553466	     35.98574599	     -1.71512491	     59.74262230	    125.78848619	    102.88970779	     28.15594173	      1.41334534	     61.88409716	    122.11447299	    109.28598885
      3.30000000	     -2.77788508	     -0.75954987	     15.37573916	      0.79926204	      0.90269651	     -0.13718924	     -7.13991837	      4.26221636	      4.82186769	      0.88975795	      0.01552921	     12.95323321	     -8.96757951	     -7.49999987	     16.71835101	     -5.25727660	     -5.81442779	     11.22213251	      0.19586316	      0.68903865	     -4.80605536	     -7.49999987	     -5.91206253	      0.92106774	      8.62428747	     35.58136884	     -1.88191774	     59.46184780	    126.25393443	    102.78585399	     27.92223103	      2.05471456	     62.08674995	    121.98911621	    109.31592806
      3.31666670	     -2.74518559	     -0.68243677	     15.28634655	      0.80201637	      0.90245224	     -0.13939116	     -7.44708015	      4.06739607	      4.80238286	      0.95984912	      0.01675253	     12.90814473	     -9.08522716	     -7.49999987	     16.44978806	     -5.09364993	     -5.70631354	     11.43048013	      0.19949951	      0.74704138	     -4.79608452	     -7.49999987	     -5.76045400	      0.79044961	      8.60032809	     35.57921494	     -1.96226605	     59.66101901	    126.72981834	    102.73768763	     27.80881510	      2.34010971	     62.44259324	    122.21634165	    109.22882114
